<svg width="41" height="41" viewBox="0 0 41 41" fill="none" xmlns="http://www.w3.org/2000/svg">
<rect width="41" height="41" fill="#DF2228"/>
<path d="M21.002 30.041C18.542 30.041 18.252 30.028 17.292 29.986C16.5434 29.9614 15.8044 29.8092 15.107 29.536C13.9003 29.0664 12.9461 28.1119 12.477 26.905C12.2143 26.205 12.0726 25.4655 12.058 24.718C12.002 23.76 12.002 23.446 12.002 21.005C12.002 18.538 12.015 18.25 12.058 17.295C12.0729 16.5485 12.2146 15.81 12.477 15.111C12.9456 13.9025 13.9014 12.9472 15.11 12.479C15.8086 12.2152 16.5473 12.0731 17.294 12.059C18.249 12.005 18.563 12.005 21.002 12.005C23.482 12.005 23.767 12.018 24.712 12.059C25.4606 12.0733 26.2012 12.2153 26.902 12.479C28.1103 12.9477 29.0658 13.9029 29.535 15.111C29.8021 15.8202 29.9446 16.5703 29.956 17.328C30.012 18.286 30.012 18.599 30.012 21.039C30.012 23.479 29.998 23.799 29.956 24.746C29.9411 25.4942 29.7991 26.2344 29.536 26.935C29.0657 28.1427 28.1101 29.0976 26.902 29.567C26.2022 29.8292 25.4631 29.9709 24.716 29.986C23.761 30.041 23.448 30.041 21.002 30.041ZM20.968 13.588C18.522 13.588 18.268 13.6 17.313 13.643C16.743 13.6506 16.1785 13.7557 15.644 13.954C14.8548 14.256 14.2302 14.878 13.925 15.666C13.7252 16.2063 13.62 16.777 13.614 17.353C13.561 18.322 13.561 18.576 13.561 21.005C13.561 23.405 13.57 23.696 13.614 24.659C13.623 25.2292 13.7281 25.7938 13.925 26.329C14.2307 27.1165 14.8551 27.738 15.644 28.04C16.1781 28.2396 16.7428 28.3448 17.313 28.351C18.281 28.407 18.536 28.407 20.968 28.407C23.421 28.407 23.675 28.395 24.622 28.351C25.1924 28.3441 25.7573 28.2389 26.292 28.04C27.0765 27.7354 27.6969 27.1153 28.002 26.331C28.2014 25.7903 28.3066 25.2193 28.313 24.643H28.324C28.367 23.687 28.367 23.432 28.367 20.989C28.367 18.546 28.356 18.289 28.313 17.334C28.304 16.7645 28.1989 16.2005 28.002 15.666C27.6976 14.8806 27.0771 14.2593 26.292 13.954C25.7574 13.7547 25.1924 13.6495 24.622 13.643C23.655 13.588 23.402 13.588 20.968 13.588ZM21.002 25.624C19.132 25.6252 17.4454 24.4997 16.7289 22.7725C16.0123 21.0452 16.4069 19.0563 17.7286 17.7335C19.0504 16.4106 21.0389 16.0143 22.7668 16.7293C24.4947 17.4444 25.6216 19.13 25.622 21C25.6192 23.5511 23.5531 25.619 21.002 25.624ZM21.002 17.998C19.3451 17.998 18.002 19.3412 18.002 20.998C18.002 22.6549 19.3451 23.998 21.002 23.998C22.6589 23.998 24.002 22.6549 24.002 20.998C23.9981 19.3427 22.6573 18.0019 21.002 17.998ZM25.802 17.285C25.2074 17.2828 24.7269 16.7996 24.728 16.205C24.7291 15.6104 25.2114 15.129 25.806 15.129C26.4006 15.129 26.8829 15.6104 26.884 16.205C26.8843 16.4919 26.7703 16.767 26.5673 16.9697C26.3642 17.1723 26.0889 17.2858 25.802 17.285Z" fill="white"/>
</svg>
